<svg width="36" height="36" viewBox="0 0 36 36" fill="none" xmlns="http://www.w3.org/2000/svg">
<g id="icons8-github 1">
<path id="Vector" d="M17.4375 1.6875C13.2603 1.6875 9.25427 3.34687 6.30057 6.30057C3.34687 9.25427 1.6875 13.2603 1.6875 17.4375C1.6875 21.6147 3.34687 25.6207 6.30057 28.5744C9.25427 31.5281 13.2603 33.1875 17.4375 33.1875C21.6147 33.1875 25.6207 31.5281 28.5744 28.5744C31.5281 25.6207 33.1875 21.6147 33.1875 17.4375C33.1875 13.2603 31.5281 9.25427 28.5744 6.30057C25.6207 3.34687 21.6147 1.6875 17.4375 1.6875Z" fill="#6D3B71"/>
<path id="Vector_2" d="M17.4375 30.375C14.8787 30.375 12.3774 29.6162 10.2498 28.1946C8.12225 26.7731 6.46402 24.7525 5.48481 22.3885C4.50561 20.0245 4.2494 17.4232 4.7486 14.9135C5.24779 12.4039 6.47997 10.0987 8.28931 8.28931C10.0987 6.47997 12.4039 5.24779 14.9135 4.7486C17.4232 4.2494 20.0245 4.50561 22.3885 5.48481C24.7525 6.46402 26.7731 8.12225 28.1946 10.2498C29.6162 12.3774 30.375 14.8787 30.375 17.4375C30.375 20.8687 29.012 24.1594 26.5857 26.5857C24.1594 29.012 20.8687 30.375 17.4375 30.375Z" fill="#815D84" fill-opacity="0.85"/>
<path id="Vector_3" d="M20.295 24.3846C21.2502 25.4096 21.8293 26.7284 21.9375 28.1252V31.0784C21.9375 31.3877 22.0669 32.2765 22.4437 32.3777L17.4375 33.289L12.375 32.3834C12.78 32.2934 12.9375 31.3877 12.9375 31.0784C12.9375 30.769 12.9375 30.5665 12.9375 29.2502C8.5556 30.2009 7.64998 26.8315 7.64998 26.8315C6.92998 25.0146 5.9006 24.5252 5.9006 24.5252C4.47185 23.5521 6.00748 23.569 6.00748 23.569C6.50988 23.636 6.99021 23.8174 7.41149 24.0993C7.83277 24.3811 8.18377 24.7558 8.43748 25.1946C9.84373 27.5965 12.06 27.3996 12.9375 27.0002C13.0837 25.9821 14.1187 24.7896 14.5687 24.3959C11.07 23.9965 7.39123 22.6465 7.39123 16.6109C7.36296 15.0447 7.9391 13.5278 8.99998 12.3752C8.52153 11.0162 8.57784 9.52613 9.15748 8.20711C9.15748 8.20711 10.4794 7.78523 13.4887 9.82148C16.0667 9.11857 18.7858 9.11857 21.3637 9.82148C24.3675 7.78523 25.6894 8.20711 25.6894 8.20711C26.2782 9.52252 26.3445 11.0127 25.875 12.3752C26.9352 13.5241 27.5132 15.0365 27.4894 16.5996C27.4837 22.6634 23.805 23.9965 20.295 24.3846Z" fill="#FFFEFF" fill-opacity="0.31"/>
<path id="Vector_4" d="M17.4375 1.125C13.5847 1.12725 9.85697 2.49318 6.91482 4.98079C3.97267 7.4684 2.00598 10.9171 1.36318 14.716C0.720385 18.5148 1.44296 22.4186 3.40291 25.7357C5.36285 29.0528 8.43365 31.569 12.0713 32.8388C12.1615 32.9043 12.2692 32.9415 12.3806 32.9456C14.6232 33.6772 16.9978 33.9137 19.3407 33.6389C21.6835 33.364 23.9389 32.5843 25.9513 31.3535C27.9636 30.1226 29.6851 28.47 30.997 26.5096C32.3089 24.5491 33.18 22.3274 33.5502 19.9977C33.9204 17.668 33.781 15.2858 33.1415 13.0152C32.502 10.7446 31.3776 8.63974 29.846 6.84572C28.3143 5.05169 26.4118 3.6112 24.2696 2.62357C22.1274 1.63593 19.7964 1.12466 17.4375 1.125ZM13.3313 32.0625C13.4338 31.7459 13.4906 31.4164 13.5 31.0837V30.78C13.5 30.5269 13.5 30.1838 13.5 29.25C13.5019 29.1651 13.4845 29.0808 13.4492 29.0035C13.4139 28.9262 13.3615 28.858 13.296 28.8038C13.2305 28.7497 13.1536 28.7111 13.071 28.691C12.9885 28.6708 12.9025 28.6696 12.8194 28.6875C9.0394 29.5088 8.22377 26.7862 8.19002 26.6737V26.6119C7.8616 25.6747 7.27697 24.8484 6.50252 24.2269C7.10306 24.4739 7.60801 24.9078 7.94252 25.4644C9.42752 28.0125 11.88 28.08 13.1738 27.5006C13.2602 27.4618 13.3355 27.4017 13.3925 27.326C13.4496 27.2502 13.4865 27.1613 13.5 27.0675C13.7599 26.1975 14.2588 25.4179 14.94 24.8175C15.0212 24.745 15.0796 24.6505 15.1081 24.5454C15.1366 24.4404 15.134 24.3293 15.1007 24.2257C15.0673 24.1221 15.0046 24.0304 14.9202 23.9617C14.8358 23.893 14.7332 23.8503 14.625 23.8388C11.3231 23.4619 7.94814 22.3088 7.94814 16.6163C7.92481 15.1917 8.45283 13.8132 9.4219 12.7688C9.50045 12.6936 9.55554 12.5973 9.5805 12.4914C9.60545 12.3856 9.59921 12.2748 9.56252 12.1725C9.15678 11.0667 9.15678 9.85271 9.56252 8.74688C10.0406 8.74688 11.205 8.96625 13.1738 10.2994C13.2412 10.3456 13.3179 10.3767 13.3985 10.3903C13.4792 10.4039 13.5618 10.3997 13.6406 10.3781C16.1226 9.69963 18.7412 9.69963 21.2231 10.3781C21.302 10.3997 21.3846 10.4039 21.4653 10.3903C21.5459 10.3767 21.6226 10.3456 21.69 10.2994C23.6644 8.96062 24.8344 8.75812 25.2956 8.74125C25.714 9.84437 25.728 11.0601 25.335 12.1725C25.2953 12.271 25.2842 12.3787 25.3031 12.4833C25.322 12.5878 25.3701 12.6848 25.4419 12.7631C26.4089 13.8084 26.9349 15.1868 26.91 16.6106C26.91 22.3088 23.535 23.4562 20.2219 23.8219C20.1133 23.8343 20.0108 23.8781 19.9267 23.9479C19.8426 24.0177 19.7807 24.1105 19.7485 24.2149C19.7163 24.3193 19.7152 24.4308 19.7453 24.5358C19.7754 24.6408 19.8355 24.7348 19.9181 24.8062C20.7496 25.726 21.2607 26.8904 21.375 28.125V31.0781C21.3825 31.4123 21.4375 31.7437 21.5381 32.0625C18.8549 32.8197 16.0145 32.8197 13.3313 32.0625ZM22.6125 31.725C22.5456 31.5194 22.5078 31.3055 22.5 31.0894V28.125C22.434 26.9353 22.045 25.786 21.375 24.8006C24.4969 24.2719 28.0631 22.6519 28.0631 16.6106C28.0878 15.0233 27.5408 13.48 26.5219 12.2625C26.9174 10.8555 26.8222 9.3557 26.2519 8.01C26.2213 7.93336 26.1741 7.86441 26.1139 7.80803C26.0536 7.75164 25.9816 7.70922 25.9031 7.68375C25.7456 7.63312 24.3 7.25625 21.3019 9.225C18.7811 8.58141 16.139 8.58141 13.6181 9.225C10.62 7.25625 9.1744 7.63312 9.0169 7.68375C8.93839 7.70922 8.86645 7.75164 8.80618 7.80803C8.74591 7.86441 8.69878 7.93336 8.66815 8.01C8.09694 9.3555 8.0017 10.8556 8.39815 12.2625C7.37884 13.4797 6.83174 15.0232 6.85689 16.6106C6.85689 22.6012 10.3613 24.2494 13.455 24.8006C13.0184 25.3253 12.6861 25.9286 12.4763 26.5781C11.6775 26.8031 10.035 26.8088 8.93815 24.9244C8.63686 24.4026 8.21823 23.9582 7.71543 23.6262C7.21262 23.2943 6.63944 23.0839 6.04127 23.0119C5.73752 23.0119 4.97252 23.0625 4.79252 23.6475C4.61252 24.2325 5.3044 24.7725 5.61377 24.9975L5.68689 25.0369C5.72064 25.0369 6.54189 25.4869 7.14939 27.0225C7.27877 27.4219 8.39814 30.4537 12.4088 29.9194C12.4088 30.3637 12.4088 30.5887 12.4088 30.7631V31.0781C12.4002 31.2946 12.3604 31.5087 12.2906 31.7138C8.93251 30.4959 6.1111 28.1334 4.32233 25.0414C2.53356 21.9494 1.89191 18.3258 2.51016 14.8076C3.12841 11.2893 4.96698 8.1016 7.70273 5.80467C10.4385 3.50775 13.8963 2.24863 17.4685 2.24863C21.0406 2.24863 24.4984 3.50775 27.2342 5.80467C29.9699 8.1016 31.8085 11.2893 32.4268 14.8076C33.045 18.3258 32.4034 21.9494 30.6146 25.0414C28.8258 28.1334 26.0044 30.4959 22.6463 31.7138L22.6125 31.725Z" fill="#5E2C5F"/>
<path id="Vector_5" d="M17.4375 20.8124C17.2883 20.8124 17.1452 20.8717 17.0398 20.9771C16.9343 21.0826 16.875 21.2257 16.875 21.3749V22.4999C16.875 22.6491 16.9343 22.7921 17.0398 22.8976C17.1452 23.0031 17.2883 23.0624 17.4375 23.0624C17.5867 23.0624 17.7298 23.0031 17.8353 22.8976C17.9407 22.7921 18 22.6491 18 22.4999V21.3749C18 21.2257 17.9407 21.0826 17.8353 20.9771C17.7298 20.8717 17.5867 20.8124 17.4375 20.8124ZM20.025 22.2355C20.0645 22.3795 20.1596 22.5018 20.2894 22.5757C20.4191 22.6495 20.5729 22.6688 20.7169 22.6293C20.8608 22.5897 20.9832 22.4946 21.057 22.3649C21.1309 22.2351 21.1502 22.0814 21.1106 21.9374L20.8125 20.8574C20.7698 20.7179 20.6745 20.6006 20.5469 20.53C20.4192 20.4594 20.2692 20.4412 20.1284 20.4791C19.9875 20.5171 19.867 20.6082 19.7921 20.7334C19.7172 20.8585 19.6938 21.0078 19.7269 21.1499L20.025 22.2355ZM12.2344 19.4174C12.1702 19.3802 12.0993 19.3561 12.0257 19.3464C11.9521 19.3367 11.8774 19.3417 11.8058 19.3611C11.7341 19.3804 11.667 19.4137 11.6083 19.4591C11.5496 19.5045 11.5005 19.5611 11.4638 19.6255L10.9013 20.5986C10.834 20.7272 10.819 20.8768 10.8594 21.0161C10.8999 21.1554 10.9926 21.2738 11.1182 21.3464C11.2438 21.419 11.3926 21.4402 11.5335 21.4057C11.6744 21.3712 11.7965 21.2836 11.8744 21.1611L12.4369 20.188C12.4743 20.1241 12.4988 20.0535 12.5088 19.9802C12.5189 19.9069 12.5144 19.8323 12.4956 19.7607C12.4768 19.6891 12.444 19.6219 12.3992 19.563C12.3544 19.5041 12.2984 19.4546 12.2344 19.4174ZM22.995 21.1611C23.0302 21.2284 23.0786 21.2878 23.1373 21.3358C23.196 21.3838 23.2638 21.4195 23.3367 21.4406C23.4096 21.4618 23.4859 21.4679 23.5613 21.4588C23.6366 21.4497 23.7092 21.4254 23.7749 21.3874C23.8406 21.3494 23.8979 21.2986 23.9434 21.2379C23.989 21.1772 24.0217 21.1079 24.0398 21.0342C24.0578 20.9605 24.0608 20.884 24.0485 20.8091C24.0362 20.7343 24.0088 20.6627 23.9681 20.5986L23.4056 19.6255C23.3278 19.5031 23.2057 19.4154 23.0647 19.3809C22.9238 19.3464 22.775 19.3677 22.6494 19.4403C22.5238 19.5129 22.4311 19.6312 22.3907 19.7706C22.3503 19.9099 22.3653 20.0595 22.4325 20.188L22.995 21.1611ZM14.7431 20.458C14.5992 20.4203 14.4461 20.4411 14.3175 20.516C14.1889 20.5908 14.0952 20.7136 14.0569 20.8574L13.7644 21.9374C13.7423 22.0096 13.7349 22.0855 13.7427 22.1605C13.7505 22.2356 13.7734 22.3084 13.8099 22.3744C13.8464 22.4405 13.8959 22.4985 13.9553 22.5451C14.0148 22.5916 14.0829 22.6257 14.1558 22.6454C14.2287 22.665 14.3048 22.6698 14.3796 22.6594C14.4544 22.649 14.5263 22.6237 14.5911 22.5849C14.6558 22.5461 14.7121 22.4947 14.7566 22.4337C14.8011 22.3727 14.8329 22.3034 14.85 22.2299L15.1425 21.1443C15.1803 21.0003 15.1594 20.8473 15.0846 20.7186C15.0097 20.59 14.8869 20.4963 14.7431 20.458ZM23.2594 5.32114C22.8388 5.10995 22.4069 4.92216 21.9656 4.75864C21.8285 4.71607 21.6802 4.72758 21.5513 4.7908C21.4223 4.85402 21.3224 4.96417 21.2721 5.09866C21.2218 5.23316 21.2248 5.38182 21.2805 5.51417C21.3362 5.64653 21.4405 5.75255 21.5719 5.81051C21.9747 5.96148 22.369 6.13423 22.7531 6.32801C22.8315 6.36817 22.9182 6.38936 23.0063 6.38989C23.1322 6.38914 23.2543 6.34614 23.3529 6.26778C23.4515 6.18941 23.5209 6.08022 23.5501 5.95768C23.5793 5.83515 23.5665 5.70637 23.5138 5.59198C23.4611 5.47758 23.3715 5.38419 23.2594 5.32676V5.32114ZM19.4906 4.10051C16.586 3.64014 13.6112 4.17958 11.0531 5.63051C10.9448 5.69192 10.8598 5.78755 10.8117 5.90241C10.7635 6.01728 10.7549 6.14488 10.787 6.2652C10.8192 6.38552 10.8904 6.49176 10.9895 6.56727C11.0885 6.64277 11.2098 6.68326 11.3344 6.68239C11.431 6.68209 11.5259 6.65691 11.61 6.60926C13.9469 5.28576 16.6637 4.79398 19.3163 5.21426C19.3901 5.22608 19.4656 5.22324 19.5384 5.20589C19.6111 5.18854 19.6798 5.15703 19.7404 5.11315C19.801 5.06927 19.8523 5.01389 19.8915 4.95017C19.9307 4.88645 19.9569 4.81563 19.9688 4.74176C19.9806 4.66789 19.9777 4.59242 19.9604 4.51965C19.943 4.44688 19.9115 4.37825 19.8676 4.31765C19.8238 4.25706 19.7684 4.20571 19.7047 4.16652C19.6409 4.12733 19.5701 4.10108 19.4963 4.08926L19.4906 4.10051Z" fill="#5E2C5F"/>
</g>
</svg>
