<svg width="36" height="36" viewBox="0 0 36 36" fill="none" xmlns="http://www.w3.org/2000/svg">
<g id="icons8-icons8 1">
<path id="Vector" d="M28.6875 32.0625H7.3125C5.44838 32.0625 3.9375 30.5516 3.9375 28.6875V7.3125C3.9375 5.44838 5.44838 3.9375 7.3125 3.9375H28.6875C30.5516 3.9375 32.0625 5.44838 32.0625 7.3125V28.6875C32.0625 30.5516 30.5516 32.0625 28.6875 32.0625Z" fill="#87528B" fill-opacity="0.4"/>
<path id="Vector_2" d="M12.2828 32.0625H24.2814L32.0625 24.2814V12.2811L12.2828 32.0625ZM30.4481 4.4325L4.4325 30.4481C4.28625 30.2119 4.17375 29.9531 4.08937 29.6831C3.98812 29.3681 3.9375 29.0362 3.9375 28.6875V28.6706L28.665 3.9375H28.6875C29.3344 3.9375 29.9363 4.1175 30.4481 4.4325ZM32.0625 7.3125V9.66938L9.66938 32.0625H7.3125C6.62063 32.0625 5.97375 31.8488 5.43938 31.4944L31.4944 5.43938C31.8544 5.97375 32.0625 6.62063 32.0625 7.3125Z" fill="#723877" fill-opacity="0.8"/>
<path id="Vector_3" d="M10.125 7.875H18V24.75H10.125V7.875Z" fill="#FFFEFF" fill-opacity="0.31"/>
<path id="Vector_4" d="M22.2188 7.875C21.0999 7.875 20.0268 8.31947 19.2356 9.11064C18.4445 9.90181 18 10.9749 18 12.0938C18 13.2126 18.4445 14.2857 19.2356 15.0769C20.0268 15.868 21.0999 16.3125 22.2188 16.3125C23.3376 16.3125 24.4107 15.868 25.2019 15.0769C25.993 14.2857 26.4375 13.2126 26.4375 12.0938C26.4375 10.9749 25.993 9.90181 25.2019 9.11064C24.4107 8.31947 23.3376 7.875 22.2188 7.875ZM22.2188 16.3125C21.6647 16.3125 21.1161 16.4216 20.6043 16.6336C20.0925 16.8456 19.6274 17.1564 19.2356 17.5481C18.8439 17.9399 18.5331 18.405 18.3211 18.9168C18.1091 19.4286 18 19.9772 18 20.5312C18 21.0853 18.1091 21.6339 18.3211 22.1457C18.5331 22.6575 18.8439 23.1226 19.2356 23.5144C19.6274 23.9061 20.0925 24.2169 20.6043 24.4289C21.1161 24.6409 21.6647 24.75 22.2188 24.75C22.7728 24.75 23.3214 24.6409 23.8332 24.4289C24.345 24.2169 24.8101 23.9061 25.2019 23.5144C25.5936 23.1226 25.9044 22.6575 26.1164 22.1457C26.3284 21.6339 26.4375 21.0853 26.4375 20.5312C26.4375 19.9772 26.3284 19.4286 26.1164 18.9168C25.9044 18.405 25.5936 17.9399 25.2019 17.5481C24.8101 17.1564 24.345 16.8456 23.8332 16.6336C23.3214 16.4216 22.7728 16.3125 22.2188 16.3125Z" fill="#FFFEFF" fill-opacity="0.31"/>
<path id="Vector_5" d="M28.1222 23.0625L28.7173 24.1521L29.8125 24.7472L28.7173 25.3423L28.1222 26.4375L27.5271 25.3423L26.4375 24.7472L27.5271 24.1521L28.1222 23.0625ZM28.9716 7.3125L29.2697 7.86094L29.8125 8.15906L29.2697 8.45156L28.9716 9L28.6734 8.45156L28.125 8.15906L28.6734 7.86094L28.9716 7.3125ZM7.03125 18L7.52513 18.9067L8.4375 19.4062L7.52513 19.9001L7.03125 20.8125L6.53175 19.9001L5.625 19.4062L6.53175 18.9067L7.03125 18Z" fill="#5E2C5F"/>
<path id="Vector_6" d="M31.9106 29.6831C31.4887 31.0556 30.2062 32.0625 28.6875 32.0625H7.31248C5.79373 32.0625 4.51123 31.0556 4.08936 29.6831C4.17373 29.4975 4.29186 29.3231 4.43248 29.1825C4.73623 28.8788 5.15811 28.6875 5.62498 28.6875H30.375C31.0612 28.6875 31.6519 29.0981 31.9106 29.6831Z" fill="#723877" fill-opacity="0.8"/>
<path id="Vector_7" d="M18 25.3125H10.125C9.81394 25.3125 9.5625 25.0611 9.5625 24.75V7.875C9.5625 7.56394 9.81394 7.3125 10.125 7.3125H18C18.3111 7.3125 18.5625 7.56394 18.5625 7.875V24.75C18.5625 25.0611 18.3111 25.3125 18 25.3125ZM10.6875 24.1875H17.4375V8.4375H10.6875V24.1875Z" fill="#5E2C5F"/>
<path id="Vector_8" d="M22.2188 16.875C19.5823 16.875 17.4375 14.7302 17.4375 12.0938C17.4375 9.45731 19.5823 7.3125 22.2188 7.3125C24.8552 7.3125 27 9.45731 27 12.0938C27 14.7302 24.8552 16.875 22.2188 16.875ZM22.2188 8.4375C20.2027 8.4375 18.5625 10.0777 18.5625 12.0938C18.5625 14.1098 20.2027 15.75 22.2188 15.75C24.2348 15.75 25.875 14.1098 25.875 12.0938C25.875 10.0777 24.2348 8.4375 22.2188 8.4375Z" fill="#5E2C5F"/>
<path id="Vector_9" d="M22.2188 25.3125C19.5823 25.3125 17.4375 23.1677 17.4375 20.5312C17.4375 17.8948 19.5823 15.75 22.2188 15.75C24.8552 15.75 27 17.8948 27 20.5312C27 23.1677 24.8552 25.3125 22.2188 25.3125ZM22.2188 16.875C20.2028 16.875 18.5625 18.5152 18.5625 20.5312C18.5625 22.5473 20.2028 24.1875 22.2188 24.1875C24.2348 24.1875 25.875 22.5473 25.875 20.5312C25.875 18.5152 24.2348 16.875 22.2188 16.875ZM15.1875 27.5625C14.877 27.5625 14.625 27.8139 14.625 28.125V29.25C14.625 29.5611 14.877 29.8125 15.1875 29.8125C15.498 29.8125 15.75 29.5611 15.75 29.25V28.125C15.75 27.8139 15.498 27.5625 15.1875 27.5625ZM18 27.5625C17.6895 27.5625 17.4375 27.8139 17.4375 28.125V29.25C17.4375 29.5611 17.6895 29.8125 18 29.8125C18.3105 29.8125 18.5625 29.5611 18.5625 29.25V28.125C18.5625 27.8139 18.3105 27.5625 18 27.5625ZM20.8125 27.5625C20.502 27.5625 20.25 27.8139 20.25 28.125V29.25C20.25 29.5611 20.502 29.8125 20.8125 29.8125C21.123 29.8125 21.375 29.5611 21.375 29.25V28.125C21.375 27.8139 21.123 27.5625 20.8125 27.5625ZM23.625 27.5625C23.3145 27.5625 23.0625 27.8139 23.0625 28.125V29.25C23.0625 29.5611 23.3145 29.8125 23.625 29.8125C23.9355 29.8125 24.1875 29.5611 24.1875 29.25V28.125C24.1875 27.8139 23.9355 27.5625 23.625 27.5625ZM26.4375 27.5625C26.127 27.5625 25.875 27.8139 25.875 28.125V29.25C25.875 29.5611 26.127 29.8125 26.4375 29.8125C26.748 29.8125 27 29.5611 27 29.25V28.125C27 27.8139 26.748 27.5625 26.4375 27.5625ZM29.25 27.5625C28.9395 27.5625 28.6875 27.8139 28.6875 28.125V29.25C28.6875 29.5611 28.9395 29.8125 29.25 29.8125C29.5605 29.8125 29.8125 29.5611 29.8125 29.25V28.125C29.8125 27.8139 29.5605 27.5625 29.25 27.5625ZM12.375 27.5625C12.0645 27.5625 11.8125 27.8139 11.8125 28.125V29.25C11.8125 29.5611 12.0645 29.8125 12.375 29.8125C12.6855 29.8125 12.9375 29.5611 12.9375 29.25V28.125C12.9375 27.8139 12.6855 27.5625 12.375 27.5625ZM9.5625 27.5625C9.252 27.5625 9 27.8139 9 28.125V29.25C9 29.5611 9.252 29.8125 9.5625 29.8125C9.873 29.8125 10.125 29.5611 10.125 29.25V28.125C10.125 27.8139 9.873 27.5625 9.5625 27.5625ZM6.75 27.5625C6.4395 27.5625 6.1875 27.8139 6.1875 28.125V29.25C6.1875 29.5611 6.4395 29.8125 6.75 29.8125C7.0605 29.8125 7.3125 29.5611 7.3125 29.25V28.125C7.3125 27.8139 7.0605 27.5625 6.75 27.5625Z" fill="#5E2C5F"/>
<path id="Vector_10" d="M28.6875 32.625H7.3125C5.14181 32.625 3.375 30.8582 3.375 28.6875V7.3125C3.375 5.14181 5.14181 3.375 7.3125 3.375H28.6875C30.8582 3.375 32.625 5.14181 32.625 7.3125V28.6875C32.625 30.8582 30.8582 32.625 28.6875 32.625ZM7.3125 4.5C5.76169 4.5 4.5 5.76169 4.5 7.3125V28.6875C4.5 30.2383 5.76169 31.5 7.3125 31.5H28.6875C30.2383 31.5 31.5 30.2383 31.5 28.6875V7.3125C31.5 5.76169 30.2383 4.5 28.6875 4.5H7.3125Z" fill="#5E2C5F"/>
</g>
</svg>
