<svg xmlns="http://www.w3.org/2000/svg" xmlns:xlink="http://www.w3.org/1999/xlink" viewBox="0,0,256,256" width="64px" height="64px"><g fill="none" fill-rule="nonzero" stroke="none" stroke-width="1" stroke-linecap="butt" stroke-linejoin="miter" stroke-miterlimit="10" stroke-dasharray="" stroke-dashoffset="0" font-family="none" font-weight="none" font-size="none" text-anchor="none" style="mix-blend-mode: normal"><g transform="scale(4,4)"><path d="M55,57h-46c-1.105,0 -2,-0.895 -2,-2v-46c0,-1.105 0.895,-2 2,-2h46c1.105,0 2,0.895 2,2v46c0,1.105 -0.895,2 -2,2z" fill="#f9e3ae"></path><path d="M54,57h-44c-1.657,0 -3,-1.343 -3,-3v-18c0,-2.209 1.791,-4 4,-4h42c2.209,0 4,1.791 4,4v18c0,1.657 -1.343,3 -3,3z" fill="#f6d397"></path><path d="M49,51h-34c-1.105,0 -2,-0.895 -2,-2v-34c0,-1.105 0.895,-2 2,-2h34c1.105,0 2,0.895 2,2v34c0,1.105 -0.895,2 -2,2z" fill-opacity="0.27059" fill="#ff00e9"></path><path d="M58.5,5.5l-26.5,26.5l-10,-10l-4,4l10,10l4,4l4,-4l26.5,-26.5z" fill="#72caaf"></path><path d="M32,35.085c-0.64,0 -1.28,-0.244 -1.768,-0.731l-10.293,-10.293l2.121,-2.121l9.94,9.939l26.439,-26.44l2.121,2.121l-26.792,26.794c-0.488,0.487 -1.128,0.731 -1.768,0.731z" fill="#97e0bb"></path><path d="M27,48c-0.553,0 -1,0.448 -1,1v2c0,0.552 0.447,1 1,1c0.553,0 1,-0.448 1,-1v-2c0,-0.552 -0.447,-1 -1,-1zM32,48c-0.553,0 -1,0.448 -1,1v2c0,0.552 0.447,1 1,1c0.553,0 1,-0.448 1,-1v-2c0,-0.552 -0.447,-1 -1,-1zM37,48c-0.553,0 -1,0.448 -1,1v2c0,0.552 0.447,1 1,1c0.553,0 1,-0.448 1,-1v-2c0,-0.552 -0.447,-1 -1,-1zM42,48c-0.553,0 -1,0.448 -1,1v2c0,0.552 0.447,1 1,1c0.553,0 1,-0.448 1,-1v-2c0,-0.552 -0.447,-1 -1,-1zM22,48c-0.553,0 -1,0.448 -1,1v2c0,0.552 0.447,1 1,1c0.553,0 1,-0.448 1,-1v-2c0,-0.552 -0.447,-1 -1,-1z" fill="#8d6c9f"></path><path d="M63.71,8.29l-4,-4c-0.39,-0.39 -1.03,-0.39 -1.42,0l-2,2.01c-0.39,-0.19 -0.83,-0.3 -1.29,-0.3h-46c-1.65,0 -3,1.35 -3,3v46c0,1.65 1.35,3 3,3h46c1.65,0 3,-1.35 3,-3v-39.58l5.71,-5.71c0.39,-0.39 0.39,-1.03 0,-1.42zM56,55c0,0.55 -0.45,1 -1,1h-46c-0.55,0 -1,-0.45 -1,-1v-46c0,-0.55 0.45,-1 1,-1h45.58l-4.07,4.07c-0.16,-0.05 -0.33,-0.07 -0.51,-0.07h-36c-1.1,0 -2,0.9 -2,2v36c0,1.1 0.9,2 2,2h3c0.55,0 1,-0.45 1,-1c0,-0.55 -0.45,-1 -1,-1h-3v-36h34.58l-16.58,16.59l-9.29,-9.3c-0.39,-0.39 -1.03,-0.39 -1.42,0l-4,4c-0.39,0.39 -0.39,1.03 0,1.42l14,14c0.2,0.19 0.45,0.29 0.71,0.29c0.26,0 0.51,-0.1 0.71,-0.29l17.29,-17.29v26.58h-3c-0.55,0 -1,0.45 -1,1c0,0.55 0.45,1 1,1h3c1.1,0 2,-0.9 2,-2v-28.58l4,-4zM58,12.59l-2,2l-4,4l-2,2l-18,18l-12.59,-12.59l2.59,-2.59l9.29,9.3c0.39,0.39 1.03,0.39 1.42,0l17.29,-17.3l1.93,-1.93l4.07,-4.07l1.7,-1.7l1.3,-1.3l2.59,2.59z" fill="#8d6c9f"></path></g></g></svg>