<?xml version="1.0" standalone="no"?>
<!DOCTYPE svg PUBLIC "-//W3C//DTD SVG 20010904//EN"
 "http://www.w3.org/TR/2001/REC-SVG-20010904/DTD/svg10.dtd">
<svg version="1.0" xmlns="http://www.w3.org/2000/svg"
 width="293.000000pt" height="293.000000pt" viewBox="0 0 293.000000 293.000000"
 preserveAspectRatio="xMidYMid meet">
<metadata>
Created by potrace 1.14, written by Peter Selinger 2001-2017
</metadata>
<g transform="translate(0.000000,293.000000) scale(0.100000,-0.100000)"
fill="#000000" stroke="none">
<path d="M1284 2719 c-6 -11 7 -63 22 -86 19 -30 18 -36 -7 -22 -15 8 -19 8
-15 0 4 -6 27 -16 52 -22 24 -6 46 -15 49 -19 7 -11 -171 -74 -184 -65 -6 3
-11 2 -11 -4 0 -8 -19 -18 -50 -26 -7 -2 -41 -15 -65 -25 -56 -23 -91 -14 -43
11 12 6 31 20 42 30 11 11 23 19 28 19 4 0 8 5 8 10 0 10 -107 -64 -121 -83
-3 -5 -15 -7 -25 -5 -11 2 -19 -3 -19 -11 0 -8 -33 -26 -80 -43 -44 -16 -87
-32 -95 -35 -25 -10 -34 -12 -64 -19 -24 -6 -28 -4 -23 9 4 10 0 14 -11 13 -9
-2 -23 3 -30 11 -16 16 -32 17 -32 2 0 -14 -52 -2 -62 14 -4 6 -2 17 4 24 8
10 6 13 -5 13 -9 0 -21 -9 -27 -19 -5 -11 -19 -23 -31 -26 -13 -4 -18 -12 -15
-22 3 -8 -1 -21 -9 -29 -8 -8 -12 -21 -9 -29 4 -8 1 -15 -6 -15 -6 0 -9 -4 -5
-9 3 -5 1 -12 -4 -15 -5 -3 -7 -14 -5 -24 6 -22 -32 -48 -50 -33 -16 13 -55
16 -78 6 -14 -5 -18 -2 -18 12 0 18 -37 50 -53 45 -36 -10 -85 -9 -129 4 -81
25 -91 25 -84 8 3 -9 6 -20 6 -25 0 -4 7 -6 15 -3 17 7 19 -4 6 -25 -5 -7 -14
-10 -21 -6 -8 5 -11 0 -8 -16 1 -13 8 -24 13 -24 25 -2 55 -18 55 -30 0 -15
51 -27 64 -14 6 5 17 3 27 -7 15 -13 33 -20 62 -23 4 -1 7 -7 7 -15 0 -13 31
-26 75 -32 46 -6 81 -18 97 -32 10 -8 24 -12 33 -9 9 4 15 1 15 -7 0 -10 7
-12 22 -8 19 4 20 2 14 -19 -5 -13 -9 -35 -11 -49 -6 -48 -17 -135 -20 -155
-1 -11 -3 -26 -4 -32 0 -7 -8 -13 -16 -13 -11 0 -12 -5 -5 -24 10 -26 5 -36
-18 -36 -12 0 -12 3 -1 16 10 13 10 17 -2 25 -10 6 -19 3 -30 -10 -15 -19 -18
-18 -90 16 -99 46 -119 47 -141 4 -13 -26 -14 -36 -5 -46 7 -7 14 -11 16 -9 2
2 9 0 15 -5 6 -5 25 -11 41 -14 44 -7 89 -19 100 -26 6 -4 23 -8 39 -10 17 -2
39 -7 51 -11 26 -10 26 -35 -1 -175 -11 -60 -12 -110 -2 -122 6 -7 33 -26 62
-42 78 -45 90 -60 109 -142 15 -63 22 -77 47 -91 17 -10 29 -23 28 -30 -2 -7
7 -17 20 -23 32 -14 27 -22 -20 -29 -38 -6 -41 -8 -23 -18 11 -6 26 -19 32
-29 7 -9 24 -20 37 -23 19 -5 27 -15 33 -44 4 -20 6 -43 5 -50 -2 -6 1 -12 5
-12 8 0 13 -23 16 -67 0 -7 3 -13 7 -13 4 0 7 -15 8 -34 1 -31 -2 -35 -46 -51
-125 -45 -150 -72 -118 -124 9 -14 79 -9 101 8 10 8 119 40 164 47 14 3 41 10
58 16 18 7 36 9 39 5 11 -11 -14 -34 -44 -42 -15 -3 -57 -20 -93 -37 -72 -32
-100 -67 -78 -95 13 -15 75 -12 123 7 23 8 24 7 22 -26 -4 -41 14 -59 49 -50
25 6 26 5 20 -28 -4 -19 -2 -36 3 -40 6 -3 9 -20 7 -36 -4 -27 -1 -30 18 -25
12 2 43 6 69 9 25 2 50 6 55 9 5 3 38 9 73 12 36 3 87 12 115 20 62 18 89 22
190 30 124 10 212 22 225 30 3 2 24 6 46 9 22 4 51 9 64 12 14 3 71 11 128 18
56 7 108 18 114 24 6 6 8 21 5 34 -6 21 -12 23 -60 22 -29 -1 -62 -6 -74 -12
-28 -15 -73 -22 -73 -12 0 5 -11 20 -25 34 -21 21 -28 23 -62 15 -147 -35
-227 -49 -290 -51 -39 -2 -69 0 -67 3 3 6 53 19 89 24 6 0 30 4 55 9 25 4 47
6 50 5 3 -1 15 3 27 9 14 8 24 9 28 2 4 -6 12 -7 18 -3 7 4 19 9 27 10 40 7
123 14 197 18 45 2 88 7 94 11 7 4 74 7 150 6 186 -1 194 2 177 65 -7 28 -13
33 -54 39 -31 4 -42 9 -33 15 8 5 9 9 4 9 -6 0 -10 14 -10 30 -1 17 3 30 7 30
4 0 1 17 -7 38 -14 34 -18 62 -29 174 -2 20 -7 42 -12 49 -4 7 -9 31 -10 54
-4 44 5 54 65 71 13 3 40 13 60 22 20 9 39 15 44 14 4 -1 8 7 8 18 1 11 2 23
3 28 1 4 6 35 10 70 4 34 11 62 14 62 9 0 89 69 81 70 -3 0 -19 -11 -35 -25
-16 -14 -33 -25 -37 -25 -7 0 -3 54 10 115 2 11 6 38 9 60 2 22 6 51 8 65 3
14 7 45 11 70 4 25 12 50 17 55 8 7 8 6 3 -4 -5 -9 -4 -12 3 -7 7 4 8 15 2 30
-9 23 -8 40 5 129 8 52 12 58 32 50 11 -4 14 -3 9 6 -5 7 0 19 12 29 14 12 17
23 11 37 -12 31 -10 38 6 31 9 -3 15 0 15 9 0 8 4 15 8 15 5 0 7 14 4 30 -4
28 -2 30 26 30 16 0 35 -7 43 -16 9 -11 22 -14 45 -9 23 4 37 1 49 -12 16 -15
16 -18 1 -28 -9 -7 -12 -15 -8 -20 4 -4 -14 -5 -39 -1 -37 5 -48 4 -52 -9 -7
-17 29 -55 53 -55 9 0 21 -5 26 -10 17 -17 93 -18 107 -2 9 11 7 13 -8 11 -30
-5 -45 9 -45 42 0 28 2 29 36 23 25 -4 34 -2 29 5 -4 7 6 16 24 22 26 9 29 14
21 30 -6 10 -15 19 -21 19 -6 0 -25 11 -43 25 -18 14 -40 25 -49 25 -10 0 -17
4 -17 9 0 5 -21 19 -47 31 -27 12 -50 25 -53 29 -7 9 -169 87 -198 96 -22 6
-22 8 -6 20 10 7 24 11 30 8 7 -2 15 0 18 6 4 6 27 3 63 -10 31 -10 59 -17 61
-14 7 7 -29 34 -45 35 -21 0 -27 3 -41 17 -7 7 -22 13 -33 13 -10 0 -19 6 -19
13 0 22 -33 45 -57 41 -13 -2 -22 -1 -22 4 3 16 -1 35 -7 30 -3 -3 -16 5 -29
18 -13 13 -31 24 -40 24 -10 0 -13 5 -9 12 5 8 0 9 -14 6 -12 -4 -22 -2 -22 4
0 5 -4 6 -10 3 -5 -3 -21 1 -34 10 -14 9 -30 14 -36 10 -5 -3 -10 -1 -10 4 0
6 -5 11 -11 11 -5 0 -8 -4 -5 -8 3 -5 -10 -4 -29 2 -19 6 -35 14 -35 18 0 4 7
5 15 2 8 -4 15 -2 15 4 0 5 -10 9 -22 9 -66 1 -71 2 -58 18 10 13 9 15 -8 15
-24 0 -38 -16 -20 -23 10 -3 10 -7 1 -19 -7 -8 -10 -17 -8 -20 3 -3 -31 -4
-75 -3 -44 1 -83 5 -86 8 -4 3 1 13 10 22 18 18 22 55 6 55 -5 0 -10 6 -10 13
0 18 -30 33 -66 32 -17 0 -37 6 -43 13 -7 6 -9 12 -6 12 3 0 1 9 -5 21 -6 11
-19 19 -28 18 -9 -1 -19 0 -22 1 -18 9 -60 4 -65 -8 -3 -8 0 -10 6 -6 7 4 10
-1 7 -12 -6 -35 -118 -24 -118 11 0 9 -9 15 -22 15 -18 0 -20 2 -8 9 8 6 17 8
20 6 4 -2 7 1 7 8 0 9 -34 13 -130 12 -71 0 -130 -3 -133 -6z m125 -196 c5
-10 13 -15 16 -11 11 11 83 -29 95 -53 11 -20 11 -20 -16 -3 -38 26 -131 27
-166 2 -14 -10 -31 -18 -37 -18 -6 0 -11 -3 -11 -7 0 -5 -14 -17 -30 -28 -17
-11 -33 -28 -36 -38 -3 -10 -8 -16 -11 -13 -6 6 -33 -19 -33 -30 0 -4 -18 -24
-40 -46 -23 -21 -38 -38 -34 -38 3 0 1 -6 -5 -13 -6 -8 -8 -16 -5 -20 3 -3 -1
-16 -9 -29 -8 -12 -15 -41 -16 -63 -1 -21 -5 -44 -9 -50 -8 -11 -7 -28 3 -119
6 -47 5 -58 -6 -54 -8 2 -20 16 -27 31 -13 27 -71 77 -88 77 -5 0 -15 9 -21
19 -7 11 -32 29 -57 42 -31 15 -46 29 -46 42 0 14 -3 17 -12 9 -7 -5 -22 -6
-33 -2 -11 4 -30 4 -42 -1 -22 -8 -27 -5 -24 14 1 5 -4 7 -11 4 -7 -2 -12 -9
-11 -15 2 -6 -6 -14 -17 -17 -11 -4 -18 -10 -15 -15 3 -5 12 -7 19 -4 10 4 12
-2 9 -20 -3 -14 -14 -28 -24 -31 -21 -7 -25 -30 -9 -40 6 -4 17 -2 24 4 12 10
26 5 26 -10 0 -11 -39 -18 -46 -8 -9 16 -37 6 -40 -13 -1 -10 1 -18 5 -18 3 0
7 -19 9 -42 4 -79 7 -93 20 -106 26 -28 10 -32 -32 -7 -40 24 -45 24 -60 10
-9 -9 -16 -20 -16 -25 0 -14 29 -39 65 -55 19 -8 50 -22 69 -30 19 -8 38 -15
44 -15 5 0 12 -9 15 -19 3 -13 -2 -21 -15 -25 -14 -3 -19 -10 -15 -20 8 -20
12 -20 -69 5 -37 11 -79 22 -93 24 -54 6 -69 16 -63 38 2 12 11 29 19 39 9 9
10 18 5 22 -6 3 -9 16 -7 29 12 102 18 133 26 143 4 6 8 21 7 35 -4 48 15 143
31 159 41 42 210 158 227 157 13 -1 18 4 16 16 -2 12 4 17 23 17 18 0 25 5 25
20 0 10 10 25 23 31 12 7 25 17 29 23 4 5 19 11 35 12 15 1 32 3 36 3 5 1 6 5
2 11 -3 5 16 15 42 23 26 8 65 22 87 31 36 15 40 15 51 0 8 -12 14 -14 19 -6
4 7 2 12 -3 12 -6 0 -11 3 -11 8 0 7 126 54 158 58 8 2 19 7 25 13 17 17 55
13 66 -6z m407 -233 c6 -6 24 -13 40 -16 16 -3 33 -9 39 -15 5 -5 20 -9 33 -9
31 0 85 -56 77 -80 -3 -10 -1 -21 5 -25 5 -3 10 -14 10 -24 0 -11 11 -23 28
-29 32 -12 62 -12 62 0 0 4 6 8 14 8 8 0 16 9 18 20 4 26 27 12 33 -21 6 -26
-12 -79 -26 -79 -5 0 -9 -5 -9 -11 0 -7 -8 -18 -17 -25 -17 -12 -17 -13 -1
-19 12 -5 15 -15 11 -39 -4 -29 -1 -36 26 -55 18 -13 38 -20 46 -18 7 3 19 0
25 -8 12 -14 61 -11 94 7 16 9 17 12 3 25 -13 14 -13 17 5 35 24 24 84 36 86
17 1 -8 13 -59 27 -114 23 -91 25 -126 12 -190 -6 -24 -15 -86 -22 -140 -3
-22 -8 -51 -10 -65 -6 -37 -17 -112 -20 -133 -2 -21 -32 -50 -124 -120 -83
-64 -86 -65 -89 -21 -2 21 -6 42 -9 48 -6 10 -10 26 -15 64 -1 6 -5 12 -10 12
-4 0 -8 7 -8 15 0 8 -5 15 -12 15 -6 0 -9 3 -5 6 6 7 -61 67 -94 85 -28 14
-23 28 9 26 34 -2 38 26 4 31 -22 3 -56 -20 -45 -31 3 -3 -11 -1 -32 6 -31 9
-36 15 -32 34 6 30 -18 43 -67 37 -24 -3 -35 -1 -31 6 3 5 0 10 -7 10 -8 0
-14 9 -15 20 -1 11 2 18 8 15 5 -4 9 3 9 15 0 14 4 19 13 14 9 -5 9 -4 0 6
-10 11 -10 17 0 29 11 14 10 14 -6 2 -24 -19 -27 -13 -27 50 0 67 3 86 19 124
12 29 10 150 -3 218 -14 66 -17 84 -22 115 -2 18 -5 38 -7 44 -1 6 9 17 23 24
l25 13 -31 7 c-23 4 -34 14 -42 38 -7 18 -12 38 -12 44 0 15 32 16 46 2z
m-1086 -560 c0 -5 -4 -10 -9 -10 -6 0 -13 5 -16 10 -3 6 1 10 9 10 9 0 16 -4
16 -10z m-225 -176 c11 0 47 -8 80 -18 33 -10 84 -25 113 -33 40 -11 52 -19
52 -34 0 -10 18 -37 41 -58 l40 -40 -28 -15 c-15 -8 -24 -15 -20 -16 5 0 -5
-12 -21 -27 -16 -16 -33 -38 -36 -50 -4 -11 -14 -24 -22 -27 -8 -3 -12 -10 -9
-16 3 -5 2 -10 -2 -10 -5 0 -10 -12 -11 -27 -1 -14 -4 -28 -7 -31 -2 -2 -25 9
-50 24 -50 32 -45 21 -91 209 -27 111 -32 134 -33 148 -1 4 -5 7 -9 7 -5 0 4
-48 19 -107 16 -59 31 -119 34 -133 2 -14 7 -37 11 -53 6 -26 5 -26 -17 -14
-33 17 -81 48 -100 64 -13 11 -15 23 -9 56 9 44 16 92 25 155 8 51 15 68 23
57 4 -6 16 -10 27 -11z m1891 -331 c-5 -15 -9 -38 -20 -110 -3 -19 -7 -21 -82
-48 -76 -28 -88 -30 -79 -15 3 6 2 10 -3 10 -18 0 -7 35 18 56 35 30 162 124
167 124 2 0 2 -8 -1 -17z m-1766 -75 c0 -5 9 -8 19 -8 21 0 29 -16 36 -73 5
-39 -13 -54 -45 -37 -18 10 -31 43 -46 119 -7 32 -6 32 15 20 11 -8 21 -17 21
-21z"/>
<path d="M1275 2480 c-3 -5 -1 -10 4 -10 6 0 11 5 11 10 0 6 -2 10 -4 10 -3 0
-8 -4 -11 -10z"/>
<path d="M1220 2445 c0 -10 7 -15 18 -13 21 4 19 22 -2 26 -10 2 -16 -3 -16
-13z"/>
<path d="M926 2313 c-11 -11 -6 -23 9 -23 8 0 15 4 15 9 0 13 -16 22 -24 14z"/>
<path d="M870 2270 c0 -5 5 -10 10 -10 6 0 10 5 10 10 0 6 -4 10 -10 10 -5 0
-10 -4 -10 -10z"/>
<path d="M840 2240 c0 -5 5 -10 11 -10 5 0 7 5 4 10 -3 6 -8 10 -11 10 -2 0
-4 -4 -4 -10z"/>
<path d="M711 2159 c-14 -5 -31 -7 -38 -4 -8 2 -11 0 -8 -5 9 -14 36 -12 65 5
28 16 17 19 -19 4z"/>
<path d="M590 2044 c0 -8 5 -12 10 -9 6 3 10 10 10 16 0 5 -4 9 -10 9 -5 0
-10 -7 -10 -16z"/>
<path d="M585 1980 c-3 -5 -2 -10 4 -10 5 0 13 5 16 10 3 6 2 10 -4 10 -5 0
-13 -4 -16 -10z"/>
<path d="M570 1940 c-13 -8 -12 -10 3 -10 9 0 17 5 17 10 0 12 -1 12 -20 0z"/>
<path d="M555 1880 c-3 -5 -1 -10 4 -10 6 0 11 5 11 10 0 6 -2 10 -4 10 -3 0
-8 -4 -11 -10z"/>
<path d="M1870 1705 c0 -8 2 -15 4 -15 2 0 6 7 10 15 3 8 1 15 -4 15 -6 0 -10
-7 -10 -15z"/>
<path d="M1835 1690 c4 -6 11 -8 16 -5 14 9 11 15 -7 15 -8 0 -12 -5 -9 -10z"/>
<path d="M1880 1646 c0 -8 4 -17 9 -20 11 -7 33 18 24 27 -12 12 -33 7 -33 -7z"/>
<path d="M1974 1485 c-15 -11 -16 -14 -4 -15 21 0 44 16 33 23 -6 4 -19 0 -29
-8z"/>
<path d="M1182 2583 c-35 -25 -60 -48 -57 -51 3 -4 9 -2 13 3 4 6 23 22 43 37
26 20 39 24 47 16 11 -11 42 5 42 22 0 23 -32 13 -88 -27z"/>
<path d="M890 2525 c0 -10 7 -15 18 -13 21 4 19 22 -2 26 -10 2 -16 -3 -16
-13z"/>
<path d="M860 2470 c0 -5 5 -10 10 -10 6 0 10 5 10 10 0 6 -4 10 -10 10 -5 0
-10 -4 -10 -10z"/>
<path d="M756 2441 c-3 -5 1 -11 9 -15 8 -3 15 -1 15 4 0 13 -18 22 -24 11z"/>
<path d="M2590 2404 c0 -3 6 -12 14 -20 16 -15 32 -2 21 16 -7 11 -35 14 -35
4z"/>
<path d="M2650 2240 c0 -11 39 -24 47 -16 9 8 -1 16 -26 21 -11 2 -21 0 -21
-5z"/>
<path d="M397 1992 c-16 -18 -15 -26 9 -133 15 -63 30 -118 34 -122 8 -9 7 20
-2 43 -12 33 -42 176 -39 190 2 8 8 18 14 22 6 4 9 9 6 13 -3 3 -13 -3 -22
-13z"/>
<path d="M422 1949 c2 -6 8 -10 13 -10 5 0 11 4 13 10 2 6 -4 11 -13 11 -9 0
-15 -5 -13 -11z"/>
<path d="M349 1853 c-13 -15 -12 -15 11 -3 34 17 36 20 18 20 -9 0 -22 -7 -29
-17z"/>
<path d="M2550 1829 c0 -5 5 -18 11 -28 12 -17 13 -17 31 1 11 11 17 22 14 25
-10 10 -56 12 -56 2z"/>
<path d="M2495 1601 c3 -11 17 -66 31 -123 l25 -103 -22 -18 c-12 -10 -20 -19
-18 -21 2 -3 14 4 27 15 l24 19 -28 117 c-16 65 -27 121 -26 126 1 4 -3 7 -9
7 -6 0 -8 -8 -4 -19z"/>
<path d="M531 1133 c-1 -7 -8 -13 -16 -13 -8 0 -15 -7 -15 -15 0 -8 7 -15 15
-15 8 0 15 -7 15 -15 0 -20 13 -19 34 4 15 16 15 19 1 31 -8 7 -15 9 -16 4 0
-5 -4 0 -9 11 -5 11 -9 14 -9 8z"/>
</g>
</svg>
